<svg t="1730968406264" class="icon" viewBox="0 0 1568 1024" version="1.1" xmlns="http://www.w3.org/2000/svg" p-id="14949" width="200" height="200"><path d="M141.824 0h1268.64c80.704 0 144.288 63.392 144.288 138.976v746.016c0 78.016-63.584 138.976-141.824 138.976H141.824C63.584 1023.968 0 960.576 0 884.992V138.976C0 63.392 63.584 0 141.824 0z" fill="#FFFFFF" p-id="14950"></path><path d="M1554.752 1023.936h-371.68V0h371.68v1023.936zM0 0h371.68v1023.936H0V0z m772.256 160.896L716 268.16c-7.328 12.192-17.12 9.76-29.344 4.864l-41.568-21.952L676.864 414.4c7.328 29.248-14.688 29.248-24.448 17.056l-70.912-80.448-14.688 39.008c-2.432 4.864-7.328 9.76-17.12 9.76l-90.464-19.488 24.448 85.344c4.896 19.488 9.792 26.816-4.896 31.68l-31.776 14.624L603.52 638.72c7.328 4.864 9.792 12.192 7.328 21.952l-14.688 46.336c53.792-7.328 102.688-14.624 156.512-21.952 4.896 0 12.224 7.328 12.224 12.192l-7.328 163.328h26.912l-4.896-163.328c0-4.864 7.328-14.624 12.224-12.192 53.792 4.864 102.688 14.624 156.512 21.952l-14.688-43.872a19.68 19.68 0 0 1 7.328-21.952L1097.472 514.4l-31.776-14.624c-14.688-4.864-9.792-12.192-4.896-31.68l24.448-85.344-92.928 17.056c-9.792 2.432-14.688-4.864-17.12-9.76l-12.224-41.44-68.48 80.448c-9.792 12.192-31.776 12.192-24.448-17.056l31.776-163.328-41.568 21.952c-12.224 7.328-22.016 7.328-29.344-4.864l-58.688-104.832z" fill="#D52B1E" p-id="14951"></path></svg>