<svg t="1730968184146" class="icon" viewBox="0 0 1522 1024" version="1.1" xmlns="http://www.w3.org/2000/svg" p-id="11316" width="200" height="200"><path d="M116.4921875 116.4921875h1176.2314127v791.015625H116.4921875z" fill="#C8414B" p-id="11317"></path><path d="M116.4921875 283.12497057h1176.2314127v457.75005886H116.4921875z" fill="#FFD250" p-id="11318"></path><path d="M626.68256308 512l17.64347065-79.39562025a11.76231427 11.76231427 0 0 0-11.76231428-14.21279648h-12.25241026a11.27221754 11.27221754 0 0 0-11.27221752 14.21279648z" fill="#C8414B" p-id="11319"></path><path d="M606.58860945 470.34180403h41.65819597v176.92480866H606.58860945z" fill="#F5F5F5" p-id="11320"></path><path d="M595.31639192 449.75775443H655.59825127v20.5840496H595.31639192z" fill="#FAB446" p-id="11321"></path><path d="M553.65819597 512H655.59825127v20.58404961H553.65819597zM655.59825127 595.31639192l-62.24224557-21.07414635v-20.5840496l62.24224557 20.5840496z m-343.067495-83.31639192l17.64347143-79.39562025a12.25241026 12.25241026 0 0 0-11.76231428-14.21279648h-10.2920248a12.25241026 12.25241026 0 0 0-11.76231429 14.21279648z" fill="#C8414B" p-id="11322"></path><path d="M387.02541212 449.75775443a20.58404961 20.58404961 0 0 0-20.58404961 20.5840496v135.2666127c0 25.48501402 23.52462856 73.02436712 103.90044152 73.02436635s103.90044153-49.00964182 103.90044154-73.02436635V470.34180403a20.58404961 20.58404961 0 0 0-20.5840496-20.5840496z" fill="#F5F5F5" p-id="11323"></path><path d="M470.34180403 553.65819597H366.44136251v-83.31639194a20.58404961 20.58404961 0 0 1 20.58404961-20.5840496h83.31639191z m0 0h103.90044154v51.95022076a51.95022077 51.95022077 0 0 1-103.90044154 0z" fill="#C8414B" p-id="11324"></path><path d="M366.44136251 553.65819597h103.90044152v51.95022076a51.95022077 51.95022077 0 0 1-103.90044152 0z" fill="#FAB446" p-id="11325"></path><path d="M449.75775443 647.26661269V553.65819597h-21.07414635v105.37073023a54.40070298 54.40070298 0 0 0 21.07414635-11.76231351z m-39.20771375 11.76231351v-102.92024803h-23.52462856v93.60841673a54.40070298 54.40070298 0 0 0 23.52462856 9.3118313z" fill="#C8414B" p-id="11326"></path><path d="M387.02541212 512H449.75775443v20.58404961H387.02541212z" fill="#FFB441" p-id="11327"></path><path d="M387.02541212 470.34180403H449.75775443v21.07414636H387.02541212z" fill="#FAB446" p-id="11328"></path><path d="M397.31743692 482.59421507h41.65819595v37.73742429h-41.65819595z" fill="#FAB446" p-id="11329"></path><path d="M293.41699615 470.34180403h41.65819519v176.92480866h-41.65819519z" fill="#F5F5F5" p-id="11330"></path><path d="M283.12497057 636.97458788h62.24224636v22.05433832H283.12497057z m1e-8-187.21683345h62.24224635v20.5840496H283.12497057z" fill="#FAB446" p-id="11331"></path><path d="M272.83294578 659.0289262h82.82629594v21.07414636H272.83294578z" fill="#5064AA" p-id="11332"></path><path d="M606.58860945 636.97458788h62.73234233v22.05433832H606.58860945z" fill="#FAB446" p-id="11333"></path><path d="M585.02436712 659.0289262h83.31639116v21.07414636h-83.31639116z" fill="#5064AA" p-id="11334"></path><path d="M410.55004067 428.68360808h122.03400894v21.07414635H410.55004067z" fill="#FAB446" p-id="11335"></path><path d="M459.55968249 364.9710738h20.58405037v63.71253428H459.55968249z" fill="#FFB441" p-id="11336"></path><path d="M449.75775443 397.31743692a30.87607441 30.87607441 0 0 1-31.36617116-32.34636312 31.36617116 31.36617116 0 1 1 62.24224557 0 30.87607441 30.87607441 0 0 1-30.87607441 32.34636312z m0-41.6581952a10.78212156 10.78212156 0 1 0 0 21.07414559 10.78212156 10.78212156 0 0 0 0-21.07414559z" fill="#F5F5F5" p-id="11337"></path><path d="M491.41595039 397.31743692A30.87607441 30.87607441 0 0 1 459.55968249 364.9710738a31.36617116 31.36617116 0 1 1 62.73234231 0 30.87607441 30.87607441 0 0 1-30.87607441 32.34636313z m0-41.6581952a10.78212156 10.78212156 0 1 0 0 21.07414559 10.78212156 10.78212156 0 0 0 0-21.07414559z" fill="#F5F5F5" p-id="11338"></path><path d="M532.58404961 418.39158328a31.36617116 31.36617116 0 1 1 31.36617116-31.36617116 31.36617116 31.36617116 0 0 1-31.36617116 31.36617115z m0-41.65819597a10.2920248 10.2920248 0 1 0 0 20.58404961 10.2920248 10.2920248 0 1 0 0-20.58404961zM410.55004067 418.39158328a31.36617116 31.36617116 0 0 1 0-62.73234155 31.36617116 31.36617116 0 0 1 0 62.73234154z m0-41.65819597a10.2920248 10.2920248 0 1 0 0 20.58404961 10.2920248 10.2920248 0 1 0 0-20.58404961z" fill="#F5F5F5" p-id="11339"></path><path d="M532.58404961 595.31639192v10.2920248a10.2920248 10.2920248 0 0 1-10.29202481 10.29202481 10.2920248 10.2920248 0 0 1-10.2920248-10.29202481v-10.2920248h20.58404961m21.07414636-21.07414635H491.41595039v31.36617115a31.36617116 31.36617116 0 0 0 30.87607441 31.36617116 31.36617116 31.36617116 0 0 0 31.36617117-31.36617116v-31.36617115z" fill="#FAB446" p-id="11340"></path><path d="M522.2920248 532.58404961a20.58404961 20.58404961 0 0 1-20.5840496-20.58404961v-20.58404961a20.09395363 20.09395363 0 0 1 21.07414636-20.5840496 21.07414636 21.07414636 0 0 1 20.5840496 20.5840496v20.58404961a20.58404961 20.58404961 0 0 1-21.07414636 20.58404961z" fill="#FFA0D2" p-id="11341"></path><path d="M438.97563288 553.65819597a31.36617116 31.36617116 0 0 0 62.73234232 0 31.36617116 31.36617116 0 0 0-62.73234232 0z" fill="#5064AA" p-id="11342"></path><path d="M459.55968249 324.78316655h20.58405037v62.24224557H459.55968249z" fill="#FAB446" p-id="11343"></path><path d="M410.55004067 428.68360808l-21.07414636-20.58404961 12.25241104-12.25241026a100.4697666 100.4697666 0 0 1 142.12796179 0l12.25241103 12.25241026-21.07414635 20.58404961z" fill="#C8414B" p-id="11344"></path><path d="M459.55968249 408.09955847a10.2920248 10.2920248 0 1 0 20.58405037-1e-8 10.2920248 10.2920248 0 1 0-20.58405037 0zM418.39158328 408.09955847a10.2920248 10.2920248 0 1 0 20.58404959-1e-8 10.2920248 10.2920248 0 1 0-20.5840496 0zM501.7079752 408.09955847a10.2920248 10.2920248 0 0 0 20.5840496-1e-8 10.2920248 10.2920248 0 1 0-20.5840496 0z" fill="#FFD250" p-id="11345"></path><path d="M283.12497057 512h103.90044154v20.58404961H283.12497057z m1e-8 83.31639192l62.24224635-21.07414635v-20.5840496l-62.24224635 20.5840496z" fill="#C8414B" p-id="11346"></path></svg>