<svg t="1701078212356" class="icon" viewBox="0 0 1024 1024" version="1.1" xmlns="http://www.w3.org/2000/svg" p-id="19544" width="200" height="200"><path d="M141.9 200.3h740.2c43 0 77.9 34.9 77.9 77.9v467.5c0 43-34.9 77.9-77.9 77.9H141.9c-43 0-77.9-34.9-77.9-77.9V278.3c0-43.1 34.9-78 77.9-78z" fill="#F9F9F9" p-id="19545"></path><path d="M141.9 200.3h740.2c43 0 77.9 34.9 77.9 77.9V512H64V278.3c0-43.1 34.9-78 77.9-78z" fill="#DE2011" p-id="19546"></path><path d="M297.7 245.5c-60 5.2-107 52.7-107 110.7s47 105.5 107 110.7c-11.9 4-24.7 6.2-38 6.2-65.1 0-117.8-52.3-117.8-116.9s52.8-116.9 117.8-116.9c13.3 0 26.1 2.2 38 6.2zM343.9 435.2l-19.5 13.6 6.9-22.7-18.9-14.4 23.7-0.4 7.8-22.5 7.8 22.5 23.8 0.4-19 14.4 6.9 22.7zM426.9 435.2l-19.5 13.6 6.9-22.7-19-14.4 23.8-0.4 7.8-22.5 7.7 22.5 23.8 0.4-18.9 14.4 6.9 22.7z" fill="#FFFFFF" p-id="19547"></path><path d="M310.7 362.2l-19.5 13.6 6.9-22.7-18.9-14.4 23.8-0.4 7.7-22.5 7.8 22.5 23.8 0.4-19 14.4 6.9 22.7zM387.1 302.5l-19.6 13.6 7-22.7-19-14.4 23.8-0.4 7.8-22.5 7.7 22.5 23.8 0.4-19 14.4 7 22.7zM460 362.2l-19.5 13.6 6.9-22.7-18.9-14.4 23.8-0.4 7.7-22.5 7.8 22.5 23.8 0.4-19 14.4 6.9 22.7z" fill="#FFFFFF" p-id="19548"></path></svg>